0, 0, Header, 1, 3, 96
1, 0, Start_track
1, 0, Time_signature, 4, 2, 24, 8
1, 0, End_track
2, 0, Start_track
2, 0, Tempo, 434783
2, 22, Tempo, 434783
2, 22, End_track
3, 0, Start_track
3, 0, Title_t, "MIDI Out"
3, 0, Control_c, 0, 10, 64
3, 0, Control_c, 0, 7, 127
3, 0, Pitch_bend_c, 0, 8192
3, 0, Control_c, 0, 101, 0
3, 0, Control_c, 0, 100, 0
3, 0, Control_c, 0, 6, 12
3, 0, Control_c, 0, 10, 64
3, 0, Control_c, 0, 7, 127
3, 0, Pitch_bend_c, 0, 8192
3, 0, Control_c, 0, 101, 0
3, 0, Control_c, 0, 100, 0
3, 0, Control_c, 0, 6, 12
3, 0, Control_c, 0, 10, 64
3, 0, Control_c, 0, 7, 127
3, 0, Pitch_bend_c, 0, 8192
3, 0, Control_c, 0, 7, 127
3, 0, Control_c, 0, 101, 0
3, 0, Control_c, 0, 100, 0
3, 0, Control_c, 0, 6, 12
3, 0, Control_c, 0, 10, 64
3, 0, Control_c, 0, 7, 127
3, 0, Pitch_bend_c, 0, 8192
3, 0, Control_c, 0, 7, 127
3, 41, Pitch_bend_c, 0, 8192
3, 288, Note_on_c, 0, 39, 127
3, 332, Note_off_c, 0, 39, 0
3, 384, Note_on_c, 0, 39, 124
3, 428, Note_off_c, 0, 39, 0
3, 480, Note_on_c, 0, 39, 127
3, 524, Note_off_c, 0, 39, 0
3, 576, Note_on_c, 0, 39, 127
3, 598, Note_off_c, 0, 39, 0
3, 600, Note_on_c, 0, 39, 93
3, 622, Note_off_c, 0, 39, 0
3, 624, Note_on_c, 0, 39, 99
3, 646, Note_off_c, 0, 39, 0
3, 648, Note_on_c, 0, 39, 103
3, 670, Note_off_c, 0, 39, 0
3, 672, Note_on_c, 0, 39, 127
3, 716, Note_off_c, 0, 39, 0
3, 768, Note_on_c, 0, 39, 124
3, 812, Note_off_c, 0, 39, 0
3, 864, Note_on_c, 0, 39, 127
3, 908, Note_off_c, 0, 39, 0
3, 960, Note_on_c, 0, 39, 127
3, 996, Note_off_c, 0, 39, 0
3, 1008, Note_on_c, 0, 39, 127
3, 1044, Note_off_c, 0, 39, 0
3, 1056, Note_on_c, 0, 39, 127
3, 1100, Note_off_c, 0, 39, 0
3, 1152, Note_on_c, 0, 39, 124
3, 1196, Note_off_c, 0, 39, 0
3, 1248, Note_on_c, 0, 39, 127
3, 1292, Note_off_c, 0, 39, 0
3, 1344, Note_on_c, 0, 39, 127
3, 1366, Note_off_c, 0, 39, 0
3, 1368, Note_on_c, 0, 39, 94
3, 1390, Note_off_c, 0, 39, 0
3, 1392, Note_on_c, 0, 39, 99
3, 1414, Note_off_c, 0, 39, 0
3, 1416, Note_on_c, 0, 39, 102
3, 1438, Note_off_c, 0, 39, 0
3, 1440, Note_on_c, 0, 39, 127
3, 1484, Note_off_c, 0, 39, 0
3, 1536, Note_on_c, 0, 39, 124
3, 1580, Note_off_c, 0, 39, 0
3, 1632, Note_on_c, 0, 39, 127
3, 1676, Note_off_c, 0, 39, 0
3, 1728, Note_on_c, 0, 39, 127
3, 1764, Note_off_c, 0, 39, 0
3, 1776, Note_on_c, 0, 39, 127
3, 1812, Note_off_c, 0, 39, 0
3, 1824, Note_on_c, 0, 39, 127
3, 1868, Note_off_c, 0, 39, 0
3, 1920, Note_on_c, 0, 39, 124
3, 1964, Note_off_c, 0, 39, 0
3, 2016, Note_on_c, 0, 39, 127
3, 2060, Note_off_c, 0, 39, 0
3, 2112, Note_on_c, 0, 39, 127
3, 2134, Note_off_c, 0, 39, 0
3, 2136, Note_on_c, 0, 39, 85
3, 2158, Note_off_c, 0, 39, 0
3, 2160, Note_on_c, 0, 39, 92
3, 2182, Note_off_c, 0, 39, 0
3, 2184, Note_on_c, 0, 39, 102
3, 2206, Note_off_c, 0, 39, 0
3, 2208, Note_on_c, 0, 39, 127
3, 2252, Note_off_c, 0, 39, 0
3, 2304, Note_on_c, 0, 39, 124
3, 2348, Note_off_c, 0, 39, 0
3, 2400, Note_on_c, 0, 39, 127
3, 2444, Note_off_c, 0, 39, 0
3, 2496, Note_on_c, 0, 39, 127
3, 2532, Note_off_c, 0, 39, 0
3, 2544, Note_on_c, 0, 39, 127
3, 2580, Note_off_c, 0, 39, 0
3, 2592, Note_on_c, 0, 39, 127
3, 2636, Note_off_c, 0, 39, 0
3, 2688, Note_on_c, 0, 39, 124
3, 2732, Note_off_c, 0, 39, 0
3, 2784, Note_on_c, 0, 39, 127
3, 2828, Note_off_c, 0, 39, 0
3, 2880, Note_on_c, 0, 39, 127
3, 2902, Note_off_c, 0, 39, 0
3, 2904, Note_on_c, 0, 39, 79
3, 2926, Note_off_c, 0, 39, 0
3, 2928, Note_on_c, 0, 39, 86
3, 2950, Note_off_c, 0, 39, 0
3, 2952, Note_on_c, 0, 39, 96
3, 2974, Note_off_c, 0, 39, 0
3, 2976, Note_on_c, 0, 39, 127
3, 3020, Note_off_c, 0, 39, 0
3, 3072, Note_on_c, 0, 39, 124
3, 3116, Note_off_c, 0, 39, 0
3, 3168, Note_on_c, 0, 39, 127
3, 3212, Note_off_c, 0, 39, 0
3, 3264, Note_on_c, 0, 39, 127
3, 3300, Note_off_c, 0, 39, 0
3, 3360, Note_on_c, 0, 39, 127
3, 3408, Note_off_c, 0, 39, 0
3, 3408, Note_on_c, 0, 51, 127
3, 3432, Note_off_c, 0, 51, 0
3, 3432, Note_on_c, 0, 51, 127
3, 3456, Note_off_c, 0, 51, 0
3, 3480, Note_on_c, 0, 51, 127
3, 3504, Note_off_c, 0, 51, 0
3, 3504, Note_on_c, 0, 49, 127
3, 3528, Note_off_c, 0, 49, 0
3, 3528, Note_on_c, 0, 51, 127
3, 3552, Note_off_c, 0, 51, 0
3, 3552, Note_on_c, 0, 39, 127
3, 3600, Note_off_c, 0, 39, 0
3, 3600, Note_on_c, 0, 51, 127
3, 3624, Note_off_c, 0, 51, 0
3, 3624, Note_on_c, 0, 51, 127
3, 3648, Note_off_c, 0, 51, 0
3, 3672, Note_on_c, 0, 51, 127
3, 3696, Note_off_c, 0, 51, 0
3, 3696, Note_on_c, 0, 49, 127
3, 3720, Note_off_c, 0, 49, 0
3, 3720, Note_on_c, 0, 51, 127
3, 3744, Note_off_c, 0, 51, 0
3, 3744, Note_on_c, 0, 39, 127
3, 3792, Note_off_c, 0, 39, 0
3, 3792, Note_on_c, 0, 51, 127
3, 3816, Note_off_c, 0, 51, 0
3, 3816, Note_on_c, 0, 51, 127
3, 3840, Note_off_c, 0, 51, 0
3, 3864, Note_on_c, 0, 51, 127
3, 3888, Note_off_c, 0, 51, 0
3, 3888, Note_on_c, 0, 49, 127
3, 3912, Note_off_c, 0, 49, 0
3, 3912, Note_on_c, 0, 51, 127
3, 3936, Note_off_c, 0, 51, 0
3, 3936, Note_on_c, 0, 39, 127
3, 3984, Note_off_c, 0, 39, 0
3, 3984, Note_on_c, 0, 51, 127
3, 4008, Note_off_c, 0, 51, 0
3, 4008, Note_on_c, 0, 54, 127
3, 4032, Note_off_c, 0, 54, 0
3, 4032, Note_on_c, 0, 56, 127
3, 4080, Note_off_c, 0, 56, 0
3, 4080, Note_on_c, 0, 54, 127
3, 4104, Note_off_c, 0, 54, 0
3, 4104, Note_on_c, 0, 56, 127
3, 4128, Note_off_c, 0, 56, 0
3, 4128, Note_on_c, 0, 39, 127
3, 4176, Note_off_c, 0, 39, 0
3, 4176, Note_on_c, 0, 51, 127
3, 4200, Note_off_c, 0, 51, 0
3, 4200, Note_on_c, 0, 51, 127
3, 4224, Note_off_c, 0, 51, 0
3, 4248, Note_on_c, 0, 51, 127
3, 4272, Note_off_c, 0, 51, 0
3, 4272, Note_on_c, 0, 49, 127
3, 4296, Note_off_c, 0, 49, 0
3, 4296, Note_on_c, 0, 51, 127
3, 4320, Note_off_c, 0, 51, 0
3, 4320, Note_on_c, 0, 39, 127
3, 4368, Note_off_c, 0, 39, 0
3, 4368, Note_on_c, 0, 51, 127
3, 4392, Note_off_c, 0, 51, 0
3, 4392, Note_on_c, 0, 51, 127
3, 4416, Note_off_c, 0, 51, 0
3, 4440, Note_on_c, 0, 51, 127
3, 4464, Note_off_c, 0, 51, 0
3, 4464, Note_on_c, 0, 49, 127
3, 4488, Note_off_c, 0, 49, 0
3, 4488, Note_on_c, 0, 51, 127
3, 4512, Note_off_c, 0, 51, 0
3, 4512, Note_on_c, 0, 39, 127
3, 4560, Note_off_c, 0, 39, 0
3, 4560, Note_on_c, 0, 51, 127
3, 4584, Note_off_c, 0, 51, 0
3, 4584, Note_on_c, 0, 51, 127
3, 4608, Note_off_c, 0, 51, 0
3, 4632, Note_on_c, 0, 51, 127
3, 4656, Note_off_c, 0, 51, 0
3, 4656, Note_on_c, 0, 49, 127
3, 4680, Note_off_c, 0, 49, 0
3, 4680, Note_on_c, 0, 51, 127
3, 4704, Note_off_c, 0, 51, 0
3, 4704, Note_on_c, 0, 56, 127
3, 4752, Note_off_c, 0, 56, 0
3, 4752, Note_on_c, 0, 54, 127
3, 4776, Note_off_c, 0, 54, 0
3, 4776, Note_on_c, 0, 56, 127
3, 4800, Note_off_c, 0, 56, 0
3, 4800, Note_on_c, 0, 54, 127
3, 4848, Note_off_c, 0, 54, 0
3, 4848, Note_on_c, 0, 51, 127
3, 4872, Note_off_c, 0, 51, 0
3, 4872, Note_on_c, 0, 54, 127
3, 4896, Note_off_c, 0, 54, 0
3, 4896, Note_on_c, 0, 39, 127
3, 4944, Note_off_c, 0, 39, 0
3, 4944, Note_on_c, 0, 51, 127
3, 4968, Note_off_c, 0, 51, 0
3, 4968, Note_on_c, 0, 51, 127
3, 4992, Note_off_c, 0, 51, 0
3, 5016, Note_on_c, 0, 51, 127
3, 5040, Note_off_c, 0, 51, 0
3, 5040, Note_on_c, 0, 49, 127
3, 5064, Note_off_c, 0, 49, 0
3, 5064, Note_on_c, 0, 51, 127
3, 5088, Note_off_c, 0, 51, 0
3, 5088, Note_on_c, 0, 39, 127
3, 5136, Note_off_c, 0, 39, 0
3, 5136, Note_on_c, 0, 51, 127
3, 5160, Note_off_c, 0, 51, 0
3, 5160, Note_on_c, 0, 51, 127
3, 5184, Note_off_c, 0, 51, 0
3, 5208, Note_on_c, 0, 51, 127
3, 5232, Note_off_c, 0, 51, 0
3, 5232, Note_on_c, 0, 49, 127
3, 5256, Note_off_c, 0, 49, 0
3, 5256, Note_on_c, 0, 51, 127
3, 5280, Note_off_c, 0, 51, 0
3, 5280, Note_on_c, 0, 39, 127
3, 5328, Note_off_c, 0, 39, 0
3, 5328, Note_on_c, 0, 51, 127
3, 5352, Note_off_c, 0, 51, 0
3, 5352, Note_on_c, 0, 51, 127
3, 5376, Note_off_c, 0, 51, 0
3, 5400, Note_on_c, 0, 51, 127
3, 5424, Note_off_c, 0, 51, 0
3, 5424, Note_on_c, 0, 49, 127
3, 5448, Note_off_c, 0, 49, 0
3, 5448, Note_on_c, 0, 51, 127
3, 5472, Note_off_c, 0, 51, 0
3, 5472, Note_on_c, 0, 39, 127
3, 5520, Note_off_c, 0, 39, 0
3, 5520, Note_on_c, 0, 51, 127
3, 5544, Note_off_c, 0, 51, 0
3, 5544, Note_on_c, 0, 54, 127
3, 5568, Note_off_c, 0, 54, 0
3, 5568, Note_on_c, 0, 56, 127
3, 5616, Note_off_c, 0, 56, 0
3, 5616, Note_on_c, 0, 54, 127
3, 5640, Note_off_c, 0, 54, 0
3, 5640, Note_on_c, 0, 56, 127
3, 5664, Note_off_c, 0, 56, 0
3, 5664, Note_on_c, 0, 39, 127
3, 5712, Note_off_c, 0, 39, 0
3, 5712, Note_on_c, 0, 51, 127
3, 5736, Note_off_c, 0, 51, 0
3, 5736, Note_on_c, 0, 51, 127
3, 5760, Note_off_c, 0, 51, 0
3, 5784, Note_on_c, 0, 51, 127
3, 5808, Note_off_c, 0, 51, 0
3, 5808, Note_on_c, 0, 49, 127
3, 5832, Note_off_c, 0, 49, 0
3, 5832, Note_on_c, 0, 51, 127
3, 5856, Note_off_c, 0, 51, 0
3, 5856, Note_on_c, 0, 39, 127
3, 5904, Note_off_c, 0, 39, 0
3, 5904, Note_on_c, 0, 51, 127
3, 5928, Note_off_c, 0, 51, 0
3, 5928, Note_on_c, 0, 51, 127
3, 5952, Note_off_c, 0, 51, 0
3, 5976, Note_on_c, 0, 51, 127
3, 6000, Note_off_c, 0, 51, 0
3, 6000, Note_on_c, 0, 49, 127
3, 6024, Note_off_c, 0, 49, 0
3, 6024, Note_on_c, 0, 51, 127
3, 6048, Note_off_c, 0, 51, 0
3, 6048, Note_on_c, 0, 39, 127
3, 6096, Note_off_c, 0, 39, 0
3, 6096, Note_on_c, 0, 51, 127
3, 6120, Note_off_c, 0, 51, 0
3, 6120, Note_on_c, 0, 51, 127
3, 6144, Note_off_c, 0, 51, 0
3, 6168, Note_on_c, 0, 51, 127
3, 6192, Note_off_c, 0, 51, 0
3, 6192, Note_on_c, 0, 49, 127
3, 6216, Note_off_c, 0, 49, 0
3, 6216, Note_on_c, 0, 51, 127
3, 6240, Note_off_c, 0, 51, 0
3, 6240, Note_on_c, 0, 56, 127
3, 6272, Note_off_c, 0, 56, 0
3, 6272, Note_on_c, 0, 54, 127
3, 6304, Note_off_c, 0, 54, 0
3, 6304, Note_on_c, 0, 56, 127
3, 6336, Note_off_c, 0, 56, 0
3, 6336, Note_on_c, 0, 54, 127
3, 6368, Note_off_c, 0, 54, 0
3, 6368, Note_on_c, 0, 51, 127
3, 6400, Note_off_c, 0, 51, 0
3, 6402, Note_on_c, 0, 54, 127
3, 6432, Note_on_c, 0, 63, 127
3, 6434, Note_off_c, 0, 54, 0
3, 6480, Note_off_c, 0, 63, 0
3, 6480, Note_on_c, 0, 65, 127
3, 6528, Note_off_c, 0, 65, 0
3, 6528, Note_on_c, 0, 66, 127
3, 6576, Note_off_c, 0, 66, 0
3, 6576, Note_on_c, 0, 68, 127
3, 6624, Note_off_c, 0, 68, 0
3, 6624, Note_on_c, 0, 70, 127
3, 6696, Note_off_c, 0, 70, 0
3, 6720, Note_on_c, 0, 75, 127
3, 6768, Note_off_c, 0, 75, 0
3, 6768, Note_on_c, 0, 73, 127
3, 6816, Note_off_c, 0, 73, 0
3, 6816, Note_on_c, 0, 70, 127
3, 6888, Note_off_c, 0, 70, 0
3, 6912, Note_on_c, 0, 63, 127
3, 7008, Note_off_c, 0, 63, 0
3, 7008, Note_on_c, 0, 70, 127
3, 7056, Note_off_c, 0, 70, 0
3, 7056, Note_on_c, 0, 68, 127
3, 7092, Note_off_c, 0, 68, 0
3, 7104, Note_on_c, 0, 66, 127
3, 7152, Note_off_c, 0, 66, 0
3, 7152, Note_on_c, 0, 65, 127
3, 7188, Note_off_c, 0, 65, 0
3, 7200, Note_on_c, 0, 63, 127
3, 7248, Note_on_c, 0, 65, 127
3, 7272, Note_off_c, 0, 63, 0
3, 7296, Note_off_c, 0, 65, 0
3, 7296, Note_on_c, 0, 66, 127
3, 7344, Note_off_c, 0, 66, 0
3, 7344, Note_on_c, 0, 68, 127
3, 7392, Note_off_c, 0, 68, 0
3, 7392, Note_on_c, 0, 70, 127
3, 7452, Note_off_c, 0, 70, 0
3, 7488, Note_on_c, 0, 68, 127
3, 7536, Note_off_c, 0, 68, 0
3, 7536, Note_on_c, 0, 66, 127
3, 7584, Note_off_c, 0, 66, 0
3, 7584, Note_on_c, 0, 65, 127
3, 7632, Note_off_c, 0, 65, 0
3, 7632, Note_on_c, 0, 63, 127
3, 7656, Note_off_c, 0, 63, 0
3, 7680, Note_on_c, 0, 65, 127
3, 7728, Note_off_c, 0, 65, 0
3, 7728, Note_on_c, 0, 66, 127
3, 7752, Note_off_c, 0, 66, 0
3, 7776, Note_on_c, 0, 65, 127
3, 7824, Note_off_c, 0, 65, 0
3, 7824, Note_on_c, 0, 63, 127
3, 7860, Note_off_c, 0, 63, 0
3, 7872, Note_on_c, 0, 62, 127
3, 7896, Note_off_c, 0, 62, 0
3, 7920, Note_on_c, 0, 65, 127
3, 7968, Note_off_c, 0, 65, 0
3, 7968, Note_on_c, 0, 63, 127
3, 8016, Note_off_c, 0, 63, 0
3, 8016, Note_on_c, 0, 65, 127
3, 8040, Note_off_c, 0, 65, 0
3, 8064, Note_on_c, 0, 66, 127
3, 8112, Note_off_c, 0, 66, 0
3, 8112, Note_on_c, 0, 68, 127
3, 8160, Note_off_c, 0, 68, 0
3, 8160, Note_on_c, 0, 70, 127
3, 8220, Note_off_c, 0, 70, 0
3, 8256, Note_on_c, 0, 75, 127
3, 8304, Note_off_c, 0, 75, 0
3, 8304, Note_on_c, 0, 73, 127
3, 8352, Note_off_c, 0, 73, 0
3, 8352, Note_on_c, 0, 70, 127
3, 8412, Note_off_c, 0, 70, 0
3, 8448, Note_on_c, 0, 63, 127
3, 8544, Note_off_c, 0, 63, 0
3, 8544, Note_on_c, 0, 70, 127
3, 8592, Note_off_c, 0, 70, 0
3, 8592, Note_on_c, 0, 68, 127
3, 8640, Note_off_c, 0, 68, 0
3, 8640, Note_on_c, 0, 66, 127
3, 8688, Note_off_c, 0, 66, 0
3, 8688, Note_on_c, 0, 65, 127
3, 8736, Note_off_c, 0, 65, 0
3, 8736, Note_on_c, 0, 63, 127
3, 8784, Note_off_c, 0, 63, 0
3, 8784, Note_on_c, 0, 65, 127
3, 8832, Note_off_c, 0, 65, 0
3, 8832, Note_on_c, 0, 66, 127
3, 8880, Note_off_c, 0, 66, 0
3, 8880, Note_on_c, 0, 68, 127
3, 8928, Note_off_c, 0, 68, 0
3, 8928, Note_on_c, 0, 70, 127
3, 8988, Note_off_c, 0, 70, 0
3, 9024, Note_on_c, 0, 68, 127
3, 9072, Note_off_c, 0, 68, 0
3, 9072, Note_on_c, 0, 66, 127
3, 9120, Note_off_c, 0, 66, 0
3, 9120, Note_on_c, 0, 65, 127
3, 9180, Note_off_c, 0, 65, 0
3, 9216, Note_on_c, 0, 66, 127
3, 9276, Note_off_c, 0, 66, 0
3, 9312, Note_on_c, 0, 68, 127
3, 9408, Note_off_c, 0, 68, 0
3, 9408, Note_on_c, 0, 70, 127
3, 9468, Note_off_c, 0, 70, 0
3, 9504, Note_on_c, 0, 63, 127
3, 9552, Note_off_c, 0, 63, 0
3, 9552, Note_on_c, 0, 65, 127
3, 9600, Note_off_c, 0, 65, 0
3, 9600, Note_on_c, 0, 66, 127
3, 9648, Note_off_c, 0, 66, 0
3, 9648, Note_on_c, 0, 68, 127
3, 9696, Note_off_c, 0, 68, 0
3, 9696, Note_on_c, 0, 70, 127
3, 9768, Note_off_c, 0, 70, 0
3, 9792, Note_on_c, 0, 75, 127
3, 9840, Note_off_c, 0, 75, 0
3, 9840, Note_on_c, 0, 73, 127
3, 9888, Note_off_c, 0, 73, 0
3, 9888, Note_on_c, 0, 70, 127
3, 9960, Note_off_c, 0, 70, 0
3, 9984, Note_on_c, 0, 63, 127
3, 10080, Note_off_c, 0, 63, 0
3, 10080, Note_on_c, 0, 70, 127
3, 10128, Note_off_c, 0, 70, 0
3, 10128, Note_on_c, 0, 68, 127
3, 10164, Note_off_c, 0, 68, 0
3, 10176, Note_on_c, 0, 66, 127
3, 10224, Note_off_c, 0, 66, 0
3, 10224, Note_on_c, 0, 65, 127
3, 10260, Note_off_c, 0, 65, 0
3, 10272, Note_on_c, 0, 63, 127
3, 10320, Note_off_c, 0, 63, 0
3, 10320, Note_on_c, 0, 65, 127
3, 10368, Note_off_c, 0, 65, 0
3, 10368, Note_on_c, 0, 66, 127
3, 10416, Note_off_c, 0, 66, 0
3, 10416, Note_on_c, 0, 68, 127
3, 10464, Note_off_c, 0, 68, 0
3, 10464, Note_on_c, 0, 70, 127
3, 10524, Note_off_c, 0, 70, 0
3, 10560, Note_on_c, 0, 68, 127
3, 10608, Note_off_c, 0, 68, 0
3, 10612, Note_on_c, 0, 66, 127
3, 10656, Note_on_c, 0, 65, 127
3, 10660, Note_off_c, 0, 66, 0
3, 10704, Note_off_c, 0, 65, 0
3, 10704, Note_on_c, 0, 63, 127
3, 10728, Note_off_c, 0, 63, 0
3, 10752, Note_on_c, 0, 65, 127
3, 10800, Note_off_c, 0, 65, 0
3, 10800, Note_on_c, 0, 66, 127
3, 10824, Note_off_c, 0, 66, 0
3, 10848, Note_on_c, 0, 65, 127
3, 10896, Note_off_c, 0, 65, 0
3, 10896, Note_on_c, 0, 63, 127
3, 10932, Note_off_c, 0, 63, 0
3, 10944, Note_on_c, 0, 62, 127
3, 10968, Note_off_c, 0, 62, 0
3, 10992, Note_on_c, 0, 65, 127
3, 11040, Note_off_c, 0, 65, 0
3, 11040, Note_on_c, 0, 63, 127
3, 11088, Note_off_c, 0, 63, 0
3, 11088, Note_on_c, 0, 65, 127
3, 11136, Note_off_c, 0, 65, 0
3, 11136, Note_on_c, 0, 66, 127
3, 11184, Note_off_c, 0, 66, 0
3, 11184, Note_on_c, 0, 68, 127
3, 11232, Note_off_c, 0, 68, 0
3, 11232, Note_on_c, 0, 70, 127
3, 11304, Note_off_c, 0, 70, 0
3, 11328, Note_on_c, 0, 75, 127
3, 11376, Note_off_c, 0, 75, 0
3, 11376, Note_on_c, 0, 73, 127
3, 11424, Note_off_c, 0, 73, 0
3, 11424, Note_on_c, 0, 70, 127
3, 11496, Note_off_c, 0, 70, 0
3, 11520, Note_on_c, 0, 63, 127
3, 11616, Note_off_c, 0, 63, 0
3, 11616, Note_on_c, 0, 70, 127
3, 11664, Note_off_c, 0, 70, 0
3, 11664, Note_on_c, 0, 68, 127
3, 11700, Note_off_c, 0, 68, 0
3, 11712, Note_on_c, 0, 66, 127
3, 11760, Note_off_c, 0, 66, 0
3, 11760, Note_on_c, 0, 65, 127
3, 11796, Note_off_c, 0, 65, 0
3, 11808, Note_on_c, 0, 63, 127
3, 11856, Note_off_c, 0, 63, 0
3, 11856, Note_on_c, 0, 65, 127
3, 11904, Note_off_c, 0, 65, 0
3, 11904, Note_on_c, 0, 66, 127
3, 11952, Note_off_c, 0, 66, 0
3, 11952, Note_on_c, 0, 68, 127
3, 12000, Note_off_c, 0, 68, 0
3, 12000, Note_on_c, 0, 70, 127
3, 12060, Note_off_c, 0, 70, 0
3, 12096, Note_on_c, 0, 68, 127
3, 12144, Note_off_c, 0, 68, 0
3, 12144, Note_on_c, 0, 66, 127
3, 12192, Note_off_c, 0, 66, 0
3, 12192, Note_on_c, 0, 65, 127
3, 12252, Note_off_c, 0, 65, 0
3, 12288, Note_on_c, 0, 66, 127
3, 12348, Note_off_c, 0, 66, 0
3, 12384, Note_on_c, 0, 68, 127
3, 12480, Note_off_c, 0, 68, 0
3, 12480, Note_on_c, 0, 70, 127
3, 12540, Note_off_c, 0, 70, 0
3, 12576, Note_on_c, 0, 73, 127
3, 12624, Note_off_c, 0, 73, 0
3, 12624, Note_on_c, 0, 75, 127
3, 12672, Note_off_c, 0, 75, 0
3, 12672, Note_on_c, 0, 70, 127
3, 12720, Note_off_c, 0, 70, 0
3, 12720, Note_on_c, 0, 68, 127
3, 12768, Note_off_c, 0, 68, 0
3, 12768, Note_on_c, 0, 70, 127
3, 12816, Note_off_c, 0, 70, 0
3, 12864, Note_on_c, 0, 68, 127
3, 12912, Note_off_c, 0, 68, 0
3, 12912, Note_on_c, 0, 70, 127
3, 12960, Note_off_c, 0, 70, 0
3, 12960, Note_on_c, 0, 73, 127
3, 13008, Note_off_c, 0, 73, 0
3, 13008, Note_on_c, 0, 75, 127
3, 13056, Note_off_c, 0, 75, 0
3, 13056, Note_on_c, 0, 70, 127
3, 13104, Note_off_c, 0, 70, 0
3, 13104, Note_on_c, 0, 68, 127
3, 13152, Note_off_c, 0, 68, 0
3, 13152, Note_on_c, 0, 70, 127
3, 13200, Note_off_c, 0, 70, 0
3, 13248, Note_on_c, 0, 68, 127
3, 13296, Note_off_c, 0, 68, 0
3, 13296, Note_on_c, 0, 70, 127
3, 13344, Note_off_c, 0, 70, 0
3, 13344, Note_on_c, 0, 68, 127
3, 13392, Note_off_c, 0, 68, 0
3, 13392, Note_on_c, 0, 66, 127
3, 13440, Note_off_c, 0, 66, 0
3, 13440, Note_on_c, 0, 65, 127
3, 13488, Note_off_c, 0, 65, 0
3, 13488, Note_on_c, 0, 61, 127
3, 13536, Note_off_c, 0, 61, 0
3, 13536, Note_on_c, 0, 63, 127
3, 13584, Note_off_c, 0, 63, 0
3, 13632, Note_on_c, 0, 61, 127
3, 13680, Note_off_c, 0, 61, 0
3, 13680, Note_on_c, 0, 63, 127
3, 13728, Note_off_c, 0, 63, 0
3, 13728, Note_on_c, 0, 65, 127
3, 13776, Note_off_c, 0, 65, 0
3, 13776, Note_on_c, 0, 66, 127
3, 13824, Note_off_c, 0, 66, 0
3, 13824, Note_on_c, 0, 68, 127
3, 13872, Note_off_c, 0, 68, 0
3, 13872, Note_on_c, 0, 70, 127
3, 13920, Note_off_c, 0, 70, 0
3, 13920, Note_on_c, 0, 63, 127
3, 13968, Note_off_c, 0, 63, 0
3, 14016, Note_on_c, 0, 70, 127
3, 14064, Note_off_c, 0, 70, 0
3, 14064, Note_on_c, 0, 73, 127
3, 14112, Note_off_c, 0, 73, 0
3, 14112, Note_on_c, 0, 73, 127
3, 14160, Note_off_c, 0, 73, 0
3, 14160, Note_on_c, 0, 75, 127
3, 14208, Note_off_c, 0, 75, 0
3, 14208, Note_on_c, 0, 70, 127
3, 14256, Note_off_c, 0, 70, 0
3, 14256, Note_on_c, 0, 68, 127
3, 14304, Note_off_c, 0, 68, 0
3, 14304, Note_on_c, 0, 70, 127
3, 14352, Note_off_c, 0, 70, 0
3, 14400, Note_on_c, 0, 68, 127
3, 14448, Note_off_c, 0, 68, 0
3, 14448, Note_on_c, 0, 70, 127
3, 14496, Note_off_c, 0, 70, 0
3, 14496, Note_on_c, 0, 73, 127
3, 14544, Note_off_c, 0, 73, 0
3, 14544, Note_on_c, 0, 75, 127
3, 14592, Note_off_c, 0, 75, 0
3, 14592, Note_on_c, 0, 70, 127
3, 14640, Note_off_c, 0, 70, 0
3, 14640, Note_on_c, 0, 68, 127
3, 14688, Note_off_c, 0, 68, 0
3, 14688, Note_on_c, 0, 70, 127
3, 14736, Note_off_c, 0, 70, 0
3, 14784, Note_on_c, 0, 68, 127
3, 14832, Note_off_c, 0, 68, 0
3, 14832, Note_on_c, 0, 70, 127
3, 14880, Note_off_c, 0, 70, 0
3, 14880, Note_on_c, 0, 68, 127
3, 14928, Note_off_c, 0, 68, 0
3, 14928, Note_on_c, 0, 66, 127
3, 14976, Note_off_c, 0, 66, 0
3, 14976, Note_on_c, 0, 65, 127
3, 15024, Note_off_c, 0, 65, 0
3, 15024, Note_on_c, 0, 61, 127
3, 15072, Note_off_c, 0, 61, 0
3, 15072, Note_on_c, 0, 63, 127
3, 15120, Note_off_c, 0, 63, 0
3, 15168, Note_on_c, 0, 61, 127
3, 15216, Note_off_c, 0, 61, 0
3, 15216, Note_on_c, 0, 63, 127
3, 15264, Note_off_c, 0, 63, 0
3, 15264, Note_on_c, 0, 65, 127
3, 15312, Note_off_c, 0, 65, 0
3, 15312, Note_on_c, 0, 66, 127
3, 15360, Note_off_c, 0, 66, 0
3, 15360, Note_on_c, 0, 68, 127
3, 15408, Note_off_c, 0, 68, 0
3, 15408, Note_on_c, 0, 70, 127
3, 15456, Note_off_c, 0, 70, 0
3, 15456, Note_on_c, 0, 63, 127
3, 15504, Note_off_c, 0, 63, 0
3, 15552, Note_on_c, 0, 70, 127
3, 15600, Note_off_c, 0, 70, 0
3, 15600, Note_on_c, 0, 73, 127
3, 15648, Note_off_c, 0, 73, 0
3, 15648, Note_on_c, 0, 73, 127
3, 15696, Note_off_c, 0, 73, 0
3, 15696, Note_on_c, 0, 75, 127
3, 15744, Note_off_c, 0, 75, 0
3, 15744, Note_on_c, 0, 70, 127
3, 15792, Note_off_c, 0, 70, 0
3, 15792, Note_on_c, 0, 68, 127
3, 15840, Note_off_c, 0, 68, 0
3, 15840, Note_on_c, 0, 70, 127
3, 15888, Note_off_c, 0, 70, 0
3, 15936, Note_on_c, 0, 68, 127
3, 15984, Note_off_c, 0, 68, 0
3, 15984, Note_on_c, 0, 70, 127
3, 16032, Note_off_c, 0, 70, 0
3, 16032, Note_on_c, 0, 73, 127
3, 16080, Note_off_c, 0, 73, 0
3, 16080, Note_on_c, 0, 75, 127
3, 16128, Note_off_c, 0, 75, 0
3, 16128, Note_on_c, 0, 70, 127
3, 16176, Note_off_c, 0, 70, 0
3, 16176, Note_on_c, 0, 68, 127
3, 16224, Note_off_c, 0, 68, 0
3, 16224, Note_on_c, 0, 70, 127
3, 16272, Note_off_c, 0, 70, 0
3, 16320, Note_on_c, 0, 68, 127
3, 16368, Note_off_c, 0, 68, 0
3, 16368, Note_on_c, 0, 70, 127
3, 16416, Note_off_c, 0, 70, 0
3, 16416, Note_on_c, 0, 68, 127
3, 16464, Note_off_c, 0, 68, 0
3, 16464, Note_on_c, 0, 66, 127
3, 16512, Note_off_c, 0, 66, 0
3, 16512, Note_on_c, 0, 65, 127
3, 16560, Note_off_c, 0, 65, 0
3, 16560, Note_on_c, 0, 61, 127
3, 16608, Note_off_c, 0, 61, 0
3, 16608, Note_on_c, 0, 63, 127
3, 16656, Note_off_c, 0, 63, 0
3, 16704, Note_on_c, 0, 61, 127
3, 16752, Note_off_c, 0, 61, 0
3, 16752, Note_on_c, 0, 63, 127
3, 16800, Note_off_c, 0, 63, 0
3, 16800, Note_on_c, 0, 65, 127
3, 16848, Note_off_c, 0, 65, 0
3, 16848, Note_on_c, 0, 66, 127
3, 16896, Note_off_c, 0, 66, 0
3, 16896, Note_on_c, 0, 68, 127
3, 16944, Note_off_c, 0, 68, 0
3, 16944, Note_on_c, 0, 70, 127
3, 16992, Note_off_c, 0, 70, 0
3, 16992, Note_on_c, 0, 63, 127
3, 17040, Note_off_c, 0, 63, 0
3, 17088, Note_on_c, 0, 70, 127
3, 17136, Note_off_c, 0, 70, 0
3, 17136, Note_on_c, 0, 73, 127
3, 17184, Note_off_c, 0, 73, 0
3, 17184, Note_on_c, 0, 73, 127
3, 17232, Note_off_c, 0, 73, 0
3, 17232, Note_on_c, 0, 75, 127
3, 17280, Note_off_c, 0, 75, 0
3, 17280, Note_on_c, 0, 70, 127
3, 17328, Note_off_c, 0, 70, 0
3, 17328, Note_on_c, 0, 68, 127
3, 17376, Note_off_c, 0, 68, 0
3, 17376, Note_on_c, 0, 70, 127
3, 17424, Note_off_c, 0, 70, 0
3, 17472, Note_on_c, 0, 68, 127
3, 17520, Note_off_c, 0, 68, 0
3, 17520, Note_on_c, 0, 70, 127
3, 17568, Note_off_c, 0, 70, 0
3, 17568, Note_on_c, 0, 73, 127
3, 17616, Note_off_c, 0, 73, 0
3, 17616, Note_on_c, 0, 75, 127
3, 17664, Note_off_c, 0, 75, 0
3, 17664, Note_on_c, 0, 70, 127
3, 17712, Note_off_c, 0, 70, 0
3, 17712, Note_on_c, 0, 68, 127
3, 17760, Note_off_c, 0, 68, 0
3, 17760, Note_on_c, 0, 70, 127
3, 17808, Note_off_c, 0, 70, 0
3, 17856, Note_on_c, 0, 75, 127
3, 17904, Note_off_c, 0, 75, 0
3, 17904, Note_on_c, 0, 77, 127
3, 17952, Note_off_c, 0, 77, 0
3, 17952, Note_on_c, 0, 78, 127
3, 18000, Note_off_c, 0, 78, 0
3, 18000, Note_on_c, 0, 77, 127
3, 18048, Note_off_c, 0, 77, 0
3, 18048, Note_on_c, 0, 75, 127
3, 18096, Note_off_c, 0, 75, 0
3, 18096, Note_on_c, 0, 73, 127
3, 18144, Note_off_c, 0, 73, 0
3, 18144, Note_on_c, 0, 70, 127
3, 18240, Note_off_c, 0, 70, 0
3, 18240, Note_on_c, 0, 68, 127
3, 18288, Note_off_c, 0, 68, 0
3, 18288, Note_on_c, 0, 70, 127
3, 18336, Note_off_c, 0, 70, 0
3, 18336, Note_on_c, 0, 68, 127
3, 18384, Note_off_c, 0, 68, 0
3, 18384, Note_on_c, 0, 66, 127
3, 18432, Note_off_c, 0, 66, 0
3, 18432, Note_on_c, 0, 65, 127
3, 18480, Note_off_c, 0, 65, 0
3, 18480, Note_on_c, 0, 61, 127
3, 18528, Note_off_c, 0, 61, 0
3, 18528, Note_on_c, 0, 63, 127
3, 18576, Note_off_c, 0, 63, 0
3, 18624, Note_on_c, 0, 70, 127
3, 18672, Note_off_c, 0, 70, 0
3, 18672, Note_on_c, 0, 73, 127
3, 18720, Note_off_c, 0, 73, 0
3, 18720, Note_on_c, 0, 73, 127
3, 18768, Note_off_c, 0, 73, 0
3, 18768, Note_on_c, 0, 75, 127
3, 18816, Note_off_c, 0, 75, 0
3, 18816, Note_on_c, 0, 70, 127
3, 18864, Note_off_c, 0, 70, 0
3, 18864, Note_on_c, 0, 68, 127
3, 18912, Note_off_c, 0, 68, 0
3, 18912, Note_on_c, 0, 70, 127
3, 18960, Note_off_c, 0, 70, 0
3, 19008, Note_on_c, 0, 68, 127
3, 19056, Note_off_c, 0, 68, 0
3, 19056, Note_on_c, 0, 70, 127
3, 19104, Note_off_c, 0, 70, 0
3, 19104, Note_on_c, 0, 73, 127
3, 19152, Note_off_c, 0, 73, 0
3, 19152, Note_on_c, 0, 75, 127
3, 19200, Note_off_c, 0, 75, 0
3, 19200, Note_on_c, 0, 70, 127
3, 19248, Note_off_c, 0, 70, 0
3, 19248, Note_on_c, 0, 68, 127
3, 19296, Note_off_c, 0, 68, 0
3, 19296, Note_on_c, 0, 70, 127
3, 19344, Note_off_c, 0, 70, 0
3, 19392, Note_on_c, 0, 68, 127
3, 19440, Note_off_c, 0, 68, 0
3, 19440, Note_on_c, 0, 70, 127
3, 19488, Note_off_c, 0, 70, 0
3, 19488, Note_on_c, 0, 68, 127
3, 19536, Note_off_c, 0, 68, 0
3, 19536, Note_on_c, 0, 66, 127
3, 19584, Note_off_c, 0, 66, 0
3, 19584, Note_on_c, 0, 65, 127
3, 19632, Note_off_c, 0, 65, 0
3, 19632, Note_on_c, 0, 61, 127
3, 19680, Note_off_c, 0, 61, 0
3, 19680, Note_on_c, 0, 63, 127
3, 19728, Note_off_c, 0, 63, 0
3, 19776, Note_on_c, 0, 61, 127
3, 19824, Note_off_c, 0, 61, 0
3, 19824, Note_on_c, 0, 63, 127
3, 19872, Note_off_c, 0, 63, 0
3, 19872, Note_on_c, 0, 65, 127
3, 19920, Note_off_c, 0, 65, 0
3, 19920, Note_on_c, 0, 66, 127
3, 19968, Note_off_c, 0, 66, 0
3, 19968, Note_on_c, 0, 68, 127
3, 20016, Note_off_c, 0, 68, 0
3, 20016, Note_on_c, 0, 70, 127
3, 20064, Note_off_c, 0, 70, 0
3, 20064, Note_on_c, 0, 63, 127
3, 20112, Note_off_c, 0, 63, 0
3, 20160, Note_on_c, 0, 70, 127
3, 20208, Note_off_c, 0, 70, 0
3, 20208, Note_on_c, 0, 73, 127
3, 20256, Note_off_c, 0, 73, 0
3, 20256, Note_on_c, 0, 73, 127
3, 20304, Note_off_c, 0, 73, 0
3, 20304, Note_on_c, 0, 75, 127
3, 20352, Note_off_c, 0, 75, 0
3, 20352, Note_on_c, 0, 70, 127
3, 20400, Note_off_c, 0, 70, 0
3, 20400, Note_on_c, 0, 68, 127
3, 20448, Note_off_c, 0, 68, 0
3, 20448, Note_on_c, 0, 70, 127
3, 20496, Note_off_c, 0, 70, 0
3, 20544, Note_on_c, 0, 68, 127
3, 20592, Note_off_c, 0, 68, 0
3, 20592, Note_on_c, 0, 70, 127
3, 20640, Note_off_c, 0, 70, 0
3, 20640, Note_on_c, 0, 73, 127
3, 20688, Note_off_c, 0, 73, 0
3, 20688, Note_on_c, 0, 75, 127
3, 20736, Note_off_c, 0, 75, 0
3, 20736, Note_on_c, 0, 70, 127
3, 20784, Note_off_c, 0, 70, 0
3, 20784, Note_on_c, 0, 68, 127
3, 20832, Note_off_c, 0, 68, 0
3, 20832, Note_on_c, 0, 70, 127
3, 20880, Note_off_c, 0, 70, 0
3, 20928, Note_on_c, 0, 68, 127
3, 20976, Note_off_c, 0, 68, 0
3, 20976, Note_on_c, 0, 70, 127
3, 21024, Note_off_c, 0, 70, 0
3, 21024, Note_on_c, 0, 68, 127
3, 21072, Note_off_c, 0, 68, 0
3, 21072, Note_on_c, 0, 66, 127
3, 21120, Note_off_c, 0, 66, 0
3, 21120, Note_on_c, 0, 65, 127
3, 21168, Note_off_c, 0, 65, 0
3, 21168, Note_on_c, 0, 61, 127
3, 21216, Note_off_c, 0, 61, 0
3, 21216, Note_on_c, 0, 63, 127
3, 21264, Note_off_c, 0, 63, 0
3, 21312, Note_on_c, 0, 61, 127
3, 21360, Note_off_c, 0, 61, 0
3, 21360, Note_on_c, 0, 63, 127
3, 21408, Note_off_c, 0, 63, 0
3, 21408, Note_on_c, 0, 65, 127
3, 21456, Note_off_c, 0, 65, 0
3, 21456, Note_on_c, 0, 66, 127
3, 21504, Note_off_c, 0, 66, 0
3, 21504, Note_on_c, 0, 68, 127
3, 21552, Note_off_c, 0, 68, 0
3, 21552, Note_on_c, 0, 70, 127
3, 21600, Note_off_c, 0, 70, 0
3, 21600, Note_on_c, 0, 63, 127
3, 21648, Note_off_c, 0, 63, 0
3, 21696, Note_on_c, 0, 70, 127
3, 21744, Note_off_c, 0, 70, 0
3, 21744, Note_on_c, 0, 73, 127
3, 21792, Note_off_c, 0, 73, 0
3, 21792, Note_on_c, 0, 73, 127
3, 21840, Note_off_c, 0, 73, 0
3, 21840, Note_on_c, 0, 73, 127
3, 21840, Note_on_c, 0, 75, 127
3, 21888, Note_off_c, 0, 75, 0
3, 21888, Note_off_c, 0, 73, 0
3, 21888, Note_on_c, 0, 70, 127
3, 21936, Note_off_c, 0, 70, 0
3, 21936, Note_on_c, 0, 68, 127
3, 21984, Note_off_c, 0, 68, 0
3, 21984, Note_on_c, 0, 70, 127
3, 22032, Note_off_c, 0, 70, 0
3, 22080, Note_on_c, 0, 68, 127
3, 22128, Note_off_c, 0, 68, 0
3, 22128, Note_on_c, 0, 70, 127
3, 22176, Note_off_c, 0, 70, 0
3, 22176, Note_on_c, 0, 73, 127
3, 22224, Note_off_c, 0, 73, 0
3, 22224, Note_on_c, 0, 75, 127
3, 22272, Note_off_c, 0, 75, 0
3, 22272, Note_on_c, 0, 70, 127
3, 22320, Note_off_c, 0, 70, 0
3, 22320, Note_on_c, 0, 68, 127
3, 22368, Note_off_c, 0, 68, 0
3, 22368, Note_on_c, 0, 70, 127
3, 22416, Note_off_c, 0, 70, 0
3, 22464, Note_on_c, 0, 68, 127
3, 22512, Note_off_c, 0, 68, 0
3, 22512, Note_on_c, 0, 70, 127
3, 22560, Note_off_c, 0, 70, 0
3, 22560, Note_on_c, 0, 68, 127
3, 22608, Note_off_c, 0, 68, 0
3, 22608, Note_on_c, 0, 66, 127
3, 22656, Note_off_c, 0, 66, 0
3, 22656, Note_on_c, 0, 65, 127
3, 22704, Note_off_c, 0, 65, 0
3, 22704, Note_on_c, 0, 61, 127
3, 22752, Note_off_c, 0, 61, 0
3, 22752, Note_on_c, 0, 63, 127
3, 22800, Note_off_c, 0, 63, 0
3, 22848, Note_on_c, 0, 61, 127
3, 22896, Note_off_c, 0, 61, 0
3, 22896, Note_on_c, 0, 63, 127
3, 22944, Note_off_c, 0, 63, 0
3, 22944, Note_on_c, 0, 65, 127
3, 22992, Note_off_c, 0, 65, 0
3, 22992, Note_on_c, 0, 66, 127
3, 23040, Note_off_c, 0, 66, 0
3, 23040, Note_on_c, 0, 68, 127
3, 23088, Note_off_c, 0, 68, 0
3, 23088, Note_on_c, 0, 70, 127
3, 23136, Note_off_c, 0, 70, 0
3, 23136, Note_on_c, 0, 63, 127
3, 23184, Note_off_c, 0, 63, 0
3, 23232, Note_on_c, 0, 70, 127
3, 23280, Note_off_c, 0, 70, 0
3, 23280, Note_on_c, 0, 73, 127
3, 23328, Note_off_c, 0, 73, 0
3, 23328, Note_on_c, 0, 73, 127
3, 23376, Note_off_c, 0, 73, 0
3, 23376, Note_on_c, 0, 75, 127
3, 23424, Note_off_c, 0, 75, 0
3, 23424, Note_on_c, 0, 70, 127
3, 23472, Note_off_c, 0, 70, 0
3, 23472, Note_on_c, 0, 68, 127
3, 23520, Note_off_c, 0, 68, 0
3, 23520, Note_on_c, 0, 70, 127
3, 23568, Note_off_c, 0, 70, 0
3, 23616, Note_on_c, 0, 68, 127
3, 23664, Note_off_c, 0, 68, 0
3, 23664, Note_on_c, 0, 70, 127
3, 23712, Note_off_c, 0, 70, 0
3, 23712, Note_on_c, 0, 73, 127
3, 23760, Note_off_c, 0, 73, 0
3, 23760, Note_on_c, 0, 75, 127
3, 23808, Note_off_c, 0, 75, 0
3, 23808, Note_on_c, 0, 70, 127
3, 23856, Note_off_c, 0, 70, 0
3, 23856, Note_on_c, 0, 68, 127
3, 23904, Note_off_c, 0, 68, 0
3, 23904, Note_on_c, 0, 70, 127
3, 23952, Note_off_c, 0, 70, 0
3, 24000, Note_on_c, 0, 75, 127
3, 24048, Note_off_c, 0, 75, 0
3, 24048, Note_on_c, 0, 77, 127
3, 24096, Note_off_c, 0, 77, 0
3, 24096, Note_on_c, 0, 78, 127
3, 24144, Note_off_c, 0, 78, 0
3, 24144, Note_on_c, 0, 77, 127
3, 24192, Note_off_c, 0, 77, 0
3, 24192, Note_on_c, 0, 75, 127
3, 24240, Note_off_c, 0, 75, 0
3, 24240, Note_on_c, 0, 73, 127
3, 24288, Note_off_c, 0, 73, 0
3, 24288, Note_on_c, 0, 70, 127
3, 24384, Note_off_c, 0, 70, 0
3, 24384, Note_on_c, 0, 68, 127
3, 24432, Note_off_c, 0, 68, 0
3, 24432, Note_on_c, 0, 70, 127
3, 24456, Note_off_c, 0, 70, 0
3, 24480, Note_on_c, 0, 68, 127
3, 24528, Note_off_c, 0, 68, 0
3, 24528, Note_on_c, 0, 66, 127
3, 24576, Note_off_c, 0, 66, 0
3, 24576, Note_on_c, 0, 65, 127
3, 24624, Note_off_c, 0, 65, 0
3, 24624, Note_on_c, 0, 61, 127
3, 24672, Note_off_c, 0, 61, 0
3, 24672, Note_on_c, 0, 63, 127
3, 24720, Note_off_c, 0, 63, 0
3, 24864, Note_on_c, 0, 63, 127
3, 24888, Note_off_c, 0, 63, 0
3, 24912, Note_on_c, 0, 63, 127
3, 24936, Note_off_c, 0, 63, 0
3, 24936, Note_on_c, 0, 63, 127
3, 24960, Note_off_c, 0, 63, 0
3, 24984, Note_on_c, 0, 63, 127
3, 25008, Note_off_c, 0, 63, 0
3, 25008, Note_on_c, 0, 61, 127
3, 25032, Note_off_c, 0, 61, 0
3, 25032, Note_on_c, 0, 63, 127
3, 25056, Note_off_c, 0, 63, 0
3, 25056, Note_on_c, 0, 63, 127
3, 25056, Note_on_c, 0, 63, 127
3, 25104, Note_off_c, 0, 63, 0
3, 25104, Note_on_c, 0, 63, 127
3, 25128, Note_off_c, 0, 63, 0
3, 25128, Note_on_c, 0, 63, 127
3, 25152, Note_off_c, 0, 63, 0
3, 25176, Note_on_c, 0, 63, 127
3, 25200, Note_off_c, 0, 63, 0
3, 25200, Note_off_c, 0, 63, 0
3, 25200, Note_on_c, 0, 61, 127
3, 25224, Note_off_c, 0, 61, 0
3, 25224, Note_on_c, 0, 63, 127
3, 25248, Note_off_c, 0, 63, 0
3, 25248, Note_on_c, 0, 63, 127
3, 25296, Note_off_c, 0, 63, 0
3, 25296, Note_on_c, 0, 63, 127
3, 25320, Note_off_c, 0, 63, 0
3, 25320, Note_on_c, 0, 63, 127
3, 25344, Note_off_c, 0, 63, 0
3, 25368, Note_on_c, 0, 63, 127
3, 25392, Note_off_c, 0, 63, 0
3, 25392, Note_on_c, 0, 61, 127
3, 25416, Note_off_c, 0, 61, 0
3, 25416, Note_on_c, 0, 63, 127
3, 25440, Note_off_c, 0, 63, 0
3, 25440, Note_on_c, 0, 63, 127
3, 25488, Note_off_c, 0, 63, 0
3, 25488, Note_on_c, 0, 63, 127
3, 25512, Note_off_c, 0, 63, 0
3, 25512, Note_on_c, 0, 66, 127
3, 25536, Note_off_c, 0, 66, 0
3, 25536, Note_on_c, 0, 68, 127
3, 25584, Note_off_c, 0, 68, 0
3, 25584, Note_on_c, 0, 66, 127
3, 25608, Note_off_c, 0, 66, 0
3, 25608, Note_on_c, 0, 68, 127
3, 25632, Note_off_c, 0, 68, 0
3, 25632, Note_on_c, 0, 63, 127
3, 25680, Note_off_c, 0, 63, 0
3, 25680, Note_on_c, 0, 63, 127
3, 25704, Note_off_c, 0, 63, 0
3, 25704, Note_on_c, 0, 63, 127
3, 25728, Note_off_c, 0, 63, 0
3, 25752, Note_on_c, 0, 63, 127
3, 25776, Note_off_c, 0, 63, 0
3, 25776, Note_on_c, 0, 61, 127
3, 25800, Note_off_c, 0, 61, 0
3, 25800, Note_on_c, 0, 63, 127
3, 25824, Note_off_c, 0, 63, 0
3, 25824, Note_on_c, 0, 63, 127
3, 25872, Note_off_c, 0, 63, 0
3, 25872, Note_on_c, 0, 63, 127
3, 25896, Note_off_c, 0, 63, 0
3, 25896, Note_on_c, 0, 63, 127
3, 25920, Note_off_c, 0, 63, 0
3, 25944, Note_on_c, 0, 63, 127
3, 25968, Note_off_c, 0, 63, 0
3, 25968, Note_on_c, 0, 61, 127
3, 25992, Note_off_c, 0, 61, 0
3, 25992, Note_on_c, 0, 63, 127
3, 26016, Note_off_c, 0, 63, 0
3, 26016, Note_on_c, 0, 63, 127
3, 26064, Note_off_c, 0, 63, 0
3, 26064, Note_on_c, 0, 63, 127
3, 26088, Note_off_c, 0, 63, 0
3, 26088, Note_on_c, 0, 63, 127
3, 26112, Note_off_c, 0, 63, 0
3, 26136, Note_on_c, 0, 63, 127
3, 26160, Note_off_c, 0, 63, 0
3, 26160, Note_on_c, 0, 61, 127
3, 26184, Note_off_c, 0, 61, 0
3, 26184, Note_on_c, 0, 63, 127
3, 26208, Note_off_c, 0, 63, 0
3, 26208, Note_on_c, 0, 68, 127
3, 26256, Note_off_c, 0, 68, 0
3, 26256, Note_on_c, 0, 66, 127
3, 26280, Note_off_c, 0, 66, 0
3, 26280, Note_on_c, 0, 68, 127
3, 26304, Note_off_c, 0, 68, 0
3, 26304, Note_on_c, 0, 66, 127
3, 26352, Note_off_c, 0, 66, 0
3, 26352, Note_on_c, 0, 63, 127
3, 26376, Note_off_c, 0, 63, 0
3, 26376, Note_on_c, 0, 66, 127
3, 26400, Note_off_c, 0, 66, 0
3, 26400, Note_on_c, 0, 63, 127
3, 26448, Note_off_c, 0, 63, 0
3, 26448, Note_on_c, 0, 63, 127
3, 26472, Note_off_c, 0, 63, 0
3, 26472, Note_on_c, 0, 63, 127
3, 26496, Note_off_c, 0, 63, 0
3, 26520, Note_on_c, 0, 63, 127
3, 26544, Note_off_c, 0, 63, 0
3, 26544, Note_on_c, 0, 61, 127
3, 26568, Note_off_c, 0, 61, 0
3, 26568, Note_on_c, 0, 63, 127
3, 26592, Note_off_c, 0, 63, 0
3, 26592, Note_on_c, 0, 63, 127
3, 26640, Note_off_c, 0, 63, 0
3, 26640, Note_on_c, 0, 63, 127
3, 26664, Note_off_c, 0, 63, 0
3, 26664, Note_on_c, 0, 63, 127
3, 26688, Note_off_c, 0, 63, 0
3, 26712, Note_on_c, 0, 63, 127
3, 26736, Note_off_c, 0, 63, 0
3, 26736, Note_on_c, 0, 61, 127
3, 26760, Note_off_c, 0, 61, 0
3, 26760, Note_on_c, 0, 63, 127
3, 26784, Note_off_c, 0, 63, 0
3, 26784, Note_on_c, 0, 63, 127
3, 26832, Note_off_c, 0, 63, 0
3, 26832, Note_on_c, 0, 63, 127
3, 26856, Note_off_c, 0, 63, 0
3, 26856, Note_on_c, 0, 63, 127
3, 26880, Note_off_c, 0, 63, 0
3, 26904, Note_on_c, 0, 63, 127
3, 26928, Note_off_c, 0, 63, 0
3, 26928, Note_on_c, 0, 61, 127
3, 26952, Note_off_c, 0, 61, 0
3, 26952, Note_on_c, 0, 63, 127
3, 26976, Note_off_c, 0, 63, 0
3, 26976, Note_on_c, 0, 63, 127
3, 27024, Note_off_c, 0, 63, 0
3, 27024, Note_on_c, 0, 63, 127
3, 27048, Note_off_c, 0, 63, 0
3, 27048, Note_on_c, 0, 66, 127
3, 27072, Note_off_c, 0, 66, 0
3, 27072, Note_on_c, 0, 68, 127
3, 27120, Note_off_c, 0, 68, 0
3, 27120, Note_on_c, 0, 66, 127
3, 27144, Note_off_c, 0, 66, 0
3, 27144, Note_on_c, 0, 68, 127
3, 27168, Note_off_c, 0, 68, 0
3, 27168, Note_on_c, 0, 63, 127
3, 27216, Note_off_c, 0, 63, 0
3, 27216, Note_on_c, 0, 63, 127
3, 27240, Note_off_c, 0, 63, 0
3, 27240, Note_on_c, 0, 63, 127
3, 27264, Note_off_c, 0, 63, 0
3, 27288, Note_on_c, 0, 63, 127
3, 27312, Note_off_c, 0, 63, 0
3, 27312, Note_on_c, 0, 61, 127
3, 27336, Note_off_c, 0, 61, 0
3, 27336, Note_on_c, 0, 63, 127
3, 27360, Note_off_c, 0, 63, 0
3, 27360, Note_on_c, 0, 63, 127
3, 27408, Note_off_c, 0, 63, 0
3, 27408, Note_on_c, 0, 63, 127
3, 27432, Note_off_c, 0, 63, 0
3, 27432, Note_on_c, 0, 63, 127
3, 27456, Note_off_c, 0, 63, 0
3, 27480, Note_on_c, 0, 63, 127
3, 27504, Note_off_c, 0, 63, 0
3, 27504, Note_on_c, 0, 61, 127
3, 27528, Note_off_c, 0, 61, 0
3, 27528, Note_on_c, 0, 63, 127
3, 27552, Note_off_c, 0, 63, 0
3, 27552, Note_on_c, 0, 63, 127
3, 27600, Note_off_c, 0, 63, 0
3, 27600, Note_on_c, 0, 63, 127
3, 27624, Note_off_c, 0, 63, 0
3, 27624, Note_on_c, 0, 63, 127
3, 27648, Note_off_c, 0, 63, 0
3, 27648, Note_on_c, 0, 68, 127
3, 27672, Note_on_c, 0, 63, 127
3, 27696, Note_off_c, 0, 68, 0
3, 27696, Note_off_c, 0, 63, 0
3, 27696, Note_on_c, 0, 66, 127
3, 27696, Note_on_c, 0, 61, 127
3, 27720, Note_off_c, 0, 61, 0
3, 27720, Note_off_c, 0, 66, 0
3, 27720, Note_on_c, 0, 63, 127
3, 27720, Note_on_c, 0, 68, 127
3, 27744, Note_off_c, 0, 68, 0
3, 27744, Note_off_c, 0, 63, 0
3, 27744, Note_on_c, 0, 66, 127
3, 27792, Note_off_c, 0, 66, 0
3, 27792, Note_on_c, 0, 63, 127
3, 27816, Note_off_c, 0, 63, 0
3, 27816, Note_on_c, 0, 66, 127
3, 27840, Note_off_c, 0, 66, 0
3, 27936, Note_on_c, 0, 63, 127
3, 27984, Note_off_c, 0, 63, 0
3, 27984, Note_on_c, 0, 65, 127
3, 28032, Note_off_c, 0, 65, 0
3, 28032, Note_on_c, 0, 66, 127
3, 28080, Note_off_c, 0, 66, 0
3, 28080, Note_on_c, 0, 68, 127
3, 28128, Note_off_c, 0, 68, 0
3, 28128, Note_on_c, 0, 70, 127
3, 28200, Note_off_c, 0, 70, 0
3, 28224, Note_on_c, 0, 75, 127
3, 28272, Note_off_c, 0, 75, 0
3, 28272, Note_on_c, 0, 73, 127
3, 28320, Note_off_c, 0, 73, 0
3, 28320, Note_on_c, 0, 70, 127
3, 28392, Note_off_c, 0, 70, 0
3, 28416, Note_on_c, 0, 63, 127
3, 28512, Note_off_c, 0, 63, 0
3, 28512, Note_on_c, 0, 70, 127
3, 28560, Note_off_c, 0, 70, 0
3, 28560, Note_on_c, 0, 68, 127
3, 28596, Note_off_c, 0, 68, 0
3, 28608, Note_on_c, 0, 66, 127
3, 28656, Note_off_c, 0, 66, 0
3, 28656, Note_on_c, 0, 65, 127
3, 28692, Note_off_c, 0, 65, 0
3, 28704, Note_on_c, 0, 63, 127
3, 28752, Note_on_c, 0, 65, 127
3, 28776, Note_off_c, 0, 63, 0
3, 28800, Note_off_c, 0, 65, 0
3, 28800, Note_on_c, 0, 66, 127
3, 28848, Note_off_c, 0, 66, 0
3, 28848, Note_on_c, 0, 68, 127
3, 28896, Note_off_c, 0, 68, 0
3, 28896, Note_on_c, 0, 70, 127
3, 28956, Note_off_c, 0, 70, 0
3, 28992, Note_on_c, 0, 68, 127
3, 29040, Note_off_c, 0, 68, 0
3, 29040, Note_on_c, 0, 66, 127
3, 29088, Note_off_c, 0, 66, 0
3, 29088, Note_on_c, 0, 65, 127
3, 29136, Note_off_c, 0, 65, 0
3, 29136, Note_on_c, 0, 63, 127
3, 29160, Note_off_c, 0, 63, 0
3, 29184, Note_on_c, 0, 65, 127
3, 29232, Note_off_c, 0, 65, 0
3, 29232, Note_on_c, 0, 66, 127
3, 29256, Note_off_c, 0, 66, 0
3, 29280, Note_on_c, 0, 65, 127
3, 29328, Note_off_c, 0, 65, 0
3, 29328, Note_on_c, 0, 63, 127
3, 29364, Note_off_c, 0, 63, 0
3, 29376, Note_on_c, 0, 62, 127
3, 29400, Note_off_c, 0, 62, 0
3, 29424, Note_on_c, 0, 65, 127
3, 29472, Note_off_c, 0, 65, 0
3, 29472, Note_on_c, 0, 63, 127
3, 29520, Note_off_c, 0, 63, 0
3, 29520, Note_on_c, 0, 65, 127
3, 29544, Note_off_c, 0, 65, 0
3, 29568, Note_on_c, 0, 66, 127
3, 29616, Note_off_c, 0, 66, 0
3, 29616, Note_on_c, 0, 68, 127
3, 29664, Note_off_c, 0, 68, 0
3, 29664, Note_on_c, 0, 70, 127
3, 29724, Note_off_c, 0, 70, 0
3, 29760, Note_on_c, 0, 75, 127
3, 29808, Note_off_c, 0, 75, 0
3, 29808, Note_on_c, 0, 73, 127
3, 29856, Note_off_c, 0, 73, 0
3, 29856, Note_on_c, 0, 70, 127
3, 29916, Note_off_c, 0, 70, 0
3, 29952, Note_on_c, 0, 63, 127
3, 30048, Note_off_c, 0, 63, 0
3, 30048, Note_on_c, 0, 70, 127
3, 30096, Note_off_c, 0, 70, 0
3, 30096, Note_on_c, 0, 68, 127
3, 30144, Note_off_c, 0, 68, 0
3, 30144, Note_on_c, 0, 66, 127
3, 30192, Note_off_c, 0, 66, 0
3, 30192, Note_on_c, 0, 65, 127
3, 30240, Note_off_c, 0, 65, 0
3, 30240, Note_on_c, 0, 63, 127
3, 30288, Note_off_c, 0, 63, 0
3, 30288, Note_on_c, 0, 65, 127
3, 30336, Note_off_c, 0, 65, 0
3, 30336, Note_on_c, 0, 66, 127
3, 30384, Note_off_c, 0, 66, 0
3, 30384, Note_on_c, 0, 68, 127
3, 30432, Note_off_c, 0, 68, 0
3, 30432, Note_on_c, 0, 70, 127
3, 30492, Note_off_c, 0, 70, 0
3, 30528, Note_on_c, 0, 68, 127
3, 30576, Note_off_c, 0, 68, 0
3, 30576, Note_on_c, 0, 66, 127
3, 30624, Note_off_c, 0, 66, 0
3, 30624, Note_on_c, 0, 65, 127
3, 30684, Note_off_c, 0, 65, 0
3, 30720, Note_on_c, 0, 66, 127
3, 30780, Note_off_c, 0, 66, 0
3, 30816, Note_on_c, 0, 68, 127
3, 30912, Note_off_c, 0, 68, 0
3, 30912, Note_on_c, 0, 70, 127
3, 30972, Note_off_c, 0, 70, 0
3, 31008, Note_on_c, 0, 63, 127
3, 31056, Note_off_c, 0, 63, 0
3, 31056, Note_on_c, 0, 65, 127
3, 31104, Note_off_c, 0, 65, 0
3, 31104, Note_on_c, 0, 66, 127
3, 31152, Note_off_c, 0, 66, 0
3, 31152, Note_on_c, 0, 68, 127
3, 31200, Note_off_c, 0, 68, 0
3, 31200, Note_on_c, 0, 70, 127
3, 31272, Note_off_c, 0, 70, 0
3, 31296, Note_on_c, 0, 75, 127
3, 31344, Note_off_c, 0, 75, 0
3, 31344, Note_on_c, 0, 73, 127
3, 31392, Note_off_c, 0, 73, 0
3, 31392, Note_on_c, 0, 70, 127
3, 31464, Note_off_c, 0, 70, 0
3, 31488, Note_on_c, 0, 63, 127
3, 31584, Note_off_c, 0, 63, 0
3, 31584, Note_on_c, 0, 70, 127
3, 31632, Note_off_c, 0, 70, 0
3, 31632, Note_on_c, 0, 68, 127
3, 31668, Note_off_c, 0, 68, 0
3, 31680, Note_on_c, 0, 66, 127
3, 31728, Note_off_c, 0, 66, 0
3, 31728, Note_on_c, 0, 65, 127
3, 31764, Note_off_c, 0, 65, 0
3, 31776, Note_on_c, 0, 63, 127
3, 31824, Note_off_c, 0, 63, 0
3, 31824, Note_on_c, 0, 65, 127
3, 31872, Note_off_c, 0, 65, 0
3, 31872, Note_on_c, 0, 66, 127
3, 31920, Note_off_c, 0, 66, 0
3, 31920, Note_on_c, 0, 68, 127
3, 31968, Note_off_c, 0, 68, 0
3, 31968, Note_on_c, 0, 70, 127
3, 32028, Note_off_c, 0, 70, 0
3, 32064, Note_on_c, 0, 68, 127
3, 32112, Note_off_c, 0, 68, 0
3, 32112, Note_on_c, 0, 66, 127
3, 32160, Note_off_c, 0, 66, 0
3, 32160, Note_on_c, 0, 65, 127
3, 32208, Note_off_c, 0, 65, 0
3, 32208, Note_on_c, 0, 63, 127
3, 32232, Note_off_c, 0, 63, 0
3, 32256, Note_on_c, 0, 65, 127
3, 32304, Note_off_c, 0, 65, 0
3, 32304, Note_on_c, 0, 66, 127
3, 32328, Note_off_c, 0, 66, 0
3, 32352, Note_on_c, 0, 65, 127
3, 32400, Note_off_c, 0, 65, 0
3, 32400, Note_on_c, 0, 63, 127
3, 32436, Note_off_c, 0, 63, 0
3, 32448, Note_on_c, 0, 62, 127
3, 32472, Note_off_c, 0, 62, 0
3, 32496, Note_on_c, 0, 65, 127
3, 32544, Note_off_c, 0, 65, 0
3, 32544, Note_on_c, 0, 63, 127
3, 32592, Note_off_c, 0, 63, 0
3, 32592, Note_on_c, 0, 65, 127
3, 32640, Note_off_c, 0, 65, 0
3, 32640, Note_on_c, 0, 66, 127
3, 32688, Note_off_c, 0, 66, 0
3, 32688, Note_on_c, 0, 68, 127
3, 32736, Note_off_c, 0, 68, 0
3, 32736, Note_on_c, 0, 70, 127
3, 32808, Note_off_c, 0, 70, 0
3, 32832, Note_on_c, 0, 75, 127
3, 32880, Note_off_c, 0, 75, 0
3, 32880, Note_on_c, 0, 73, 127
3, 32928, Note_off_c, 0, 73, 0
3, 32928, Note_on_c, 0, 70, 127
3, 33000, Note_off_c, 0, 70, 0
3, 33024, Note_on_c, 0, 63, 127
3, 33120, Note_off_c, 0, 63, 0
3, 33120, Note_on_c, 0, 70, 127
3, 33168, Note_off_c, 0, 70, 0
3, 33168, Note_on_c, 0, 68, 127
3, 33204, Note_off_c, 0, 68, 0
3, 33216, Note_on_c, 0, 66, 127
3, 33264, Note_off_c, 0, 66, 0
3, 33264, Note_on_c, 0, 65, 127
3, 33300, Note_off_c, 0, 65, 0
3, 33312, Note_on_c, 0, 63, 127
3, 33360, Note_off_c, 0, 63, 0
3, 33360, Note_on_c, 0, 65, 127
3, 33408, Note_off_c, 0, 65, 0
3, 33408, Note_on_c, 0, 66, 127
3, 33456, Note_off_c, 0, 66, 0
3, 33456, Note_on_c, 0, 68, 127
3, 33504, Note_off_c, 0, 68, 0
3, 33504, Note_on_c, 0, 70, 127
3, 33564, Note_off_c, 0, 70, 0
3, 33600, Note_on_c, 0, 68, 127
3, 33648, Note_off_c, 0, 68, 0
3, 33648, Note_on_c, 0, 66, 127
3, 33696, Note_off_c, 0, 66, 0
3, 33696, Note_on_c, 0, 65, 127
3, 33756, Note_off_c, 0, 65, 0
3, 33792, Note_on_c, 0, 66, 127
3, 33852, Note_off_c, 0, 66, 0
3, 33888, Note_on_c, 0, 68, 127
3, 33984, Note_off_c, 0, 68, 0
3, 33984, Note_on_c, 0, 70, 127
3, 34044, Note_off_c, 0, 70, 0
3, 34080, Note_on_c, 0, 73, 127
3, 34128, Note_off_c, 0, 73, 0
3, 34128, Note_on_c, 0, 75, 127
3, 34176, Note_off_c, 0, 75, 0
3, 34176, Note_on_c, 0, 70, 127
3, 34224, Note_off_c, 0, 70, 0
3, 34224, Note_on_c, 0, 68, 127
3, 34272, Note_off_c, 0, 68, 0
3, 34272, Note_on_c, 0, 70, 127
3, 34320, Note_off_c, 0, 70, 0
3, 34368, Note_on_c, 0, 68, 127
3, 34416, Note_off_c, 0, 68, 0
3, 34416, Note_on_c, 0, 70, 127
3, 34464, Note_off_c, 0, 70, 0
3, 34464, Note_on_c, 0, 73, 127
3, 34512, Note_off_c, 0, 73, 0
3, 34512, Note_on_c, 0, 75, 127
3, 34560, Note_off_c, 0, 75, 0
3, 34560, Note_on_c, 0, 70, 127
3, 34608, Note_off_c, 0, 70, 0
3, 34608, Note_on_c, 0, 68, 127
3, 34656, Note_off_c, 0, 68, 0
3, 34656, Note_on_c, 0, 70, 127
3, 34704, Note_off_c, 0, 70, 0
3, 34752, Note_on_c, 0, 68, 127
3, 34800, Note_off_c, 0, 68, 0
3, 34800, Note_on_c, 0, 70, 127
3, 34848, Note_off_c, 0, 70, 0
3, 34848, Note_on_c, 0, 68, 127
3, 34896, Note_off_c, 0, 68, 0
3, 34896, Note_on_c, 0, 66, 127
3, 34944, Note_off_c, 0, 66, 0
3, 34944, Note_on_c, 0, 65, 127
3, 34992, Note_off_c, 0, 65, 0
3, 34992, Note_on_c, 0, 61, 127
3, 35040, Note_off_c, 0, 61, 0
3, 35040, Note_on_c, 0, 63, 127
3, 35088, Note_off_c, 0, 63, 0
3, 35136, Note_on_c, 0, 61, 127
3, 35184, Note_off_c, 0, 61, 0
3, 35184, Note_on_c, 0, 63, 127
3, 35232, Note_off_c, 0, 63, 0
3, 35232, Note_on_c, 0, 65, 127
3, 35280, Note_off_c, 0, 65, 0
3, 35280, Note_on_c, 0, 66, 127
3, 35328, Note_off_c, 0, 66, 0
3, 35328, Note_on_c, 0, 68, 127
3, 35376, Note_off_c, 0, 68, 0
3, 35376, Note_on_c, 0, 70, 127
3, 35424, Note_off_c, 0, 70, 0
3, 35424, Note_on_c, 0, 63, 127
3, 35472, Note_off_c, 0, 63, 0
3, 35520, Note_on_c, 0, 70, 127
3, 35568, Note_off_c, 0, 70, 0
3, 35568, Note_on_c, 0, 73, 127
3, 35616, Note_off_c, 0, 73, 0
3, 35616, Note_on_c, 0, 73, 127
3, 35664, Note_off_c, 0, 73, 0
3, 35664, Note_on_c, 0, 75, 127
3, 35712, Note_off_c, 0, 75, 0
3, 35712, Note_on_c, 0, 70, 127
3, 35760, Note_off_c, 0, 70, 0
3, 35760, Note_on_c, 0, 68, 127
3, 35808, Note_off_c, 0, 68, 0
3, 35808, Note_on_c, 0, 70, 127
3, 35856, Note_off_c, 0, 70, 0
3, 35904, Note_on_c, 0, 68, 127
3, 35952, Note_off_c, 0, 68, 0
3, 35952, Note_on_c, 0, 70, 127
3, 36000, Note_off_c, 0, 70, 0
3, 36000, Note_on_c, 0, 73, 127
3, 36048, Note_off_c, 0, 73, 0
3, 36048, Note_on_c, 0, 75, 127
3, 36096, Note_off_c, 0, 75, 0
3, 36096, Note_on_c, 0, 70, 127
3, 36144, Note_off_c, 0, 70, 0
3, 36144, Note_on_c, 0, 68, 127
3, 36192, Note_off_c, 0, 68, 0
3, 36192, Note_on_c, 0, 70, 127
3, 36240, Note_off_c, 0, 70, 0
3, 36288, Note_on_c, 0, 68, 127
3, 36336, Note_off_c, 0, 68, 0
3, 36336, Note_on_c, 0, 70, 127
3, 36384, Note_off_c, 0, 70, 0
3, 36384, Note_on_c, 0, 68, 127
3, 36432, Note_off_c, 0, 68, 0
3, 36432, Note_on_c, 0, 66, 127
3, 36480, Note_off_c, 0, 66, 0
3, 36480, Note_on_c, 0, 65, 127
3, 36528, Note_off_c, 0, 65, 0
3, 36528, Note_on_c, 0, 61, 127
3, 36576, Note_off_c, 0, 61, 0
3, 36576, Note_on_c, 0, 63, 127
3, 36624, Note_off_c, 0, 63, 0
3, 36672, Note_on_c, 0, 61, 127
3, 36720, Note_off_c, 0, 61, 0
3, 36720, Note_on_c, 0, 63, 127
3, 36768, Note_off_c, 0, 63, 0
3, 36768, Note_on_c, 0, 65, 127
3, 36816, Note_off_c, 0, 65, 0
3, 36816, Note_on_c, 0, 66, 127
3, 36864, Note_off_c, 0, 66, 0
3, 36864, Note_on_c, 0, 68, 127
3, 36912, Note_off_c, 0, 68, 0
3, 36912, Note_on_c, 0, 70, 127
3, 36960, Note_off_c, 0, 70, 0
3, 36960, Note_on_c, 0, 63, 127
3, 37008, Note_off_c, 0, 63, 0
3, 37056, Note_on_c, 0, 70, 127
3, 37104, Note_off_c, 0, 70, 0
3, 37104, Note_on_c, 0, 73, 127
3, 37152, Note_off_c, 0, 73, 0
3, 37152, Note_on_c, 0, 73, 127
3, 37200, Note_off_c, 0, 73, 0
3, 37200, Note_on_c, 0, 75, 127
3, 37248, Note_off_c, 0, 75, 0
3, 37248, Note_on_c, 0, 70, 127
3, 37296, Note_off_c, 0, 70, 0
3, 37296, Note_on_c, 0, 68, 127
3, 37344, Note_off_c, 0, 68, 0
3, 37344, Note_on_c, 0, 70, 127
3, 37392, Note_off_c, 0, 70, 0
3, 37440, Note_on_c, 0, 68, 127
3, 37488, Note_off_c, 0, 68, 0
3, 37488, Note_on_c, 0, 70, 127
3, 37536, Note_off_c, 0, 70, 0
3, 37536, Note_on_c, 0, 73, 127
3, 37584, Note_off_c, 0, 73, 0
3, 37584, Note_on_c, 0, 75, 127
3, 37632, Note_off_c, 0, 75, 0
3, 37632, Note_on_c, 0, 70, 127
3, 37680, Note_off_c, 0, 70, 0
3, 37680, Note_on_c, 0, 68, 127
3, 37728, Note_off_c, 0, 68, 0
3, 37728, Note_on_c, 0, 70, 127
3, 37776, Note_off_c, 0, 70, 0
3, 37824, Note_on_c, 0, 68, 127
3, 37872, Note_off_c, 0, 68, 0
3, 37872, Note_on_c, 0, 70, 127
3, 37920, Note_off_c, 0, 70, 0
3, 37920, Note_on_c, 0, 68, 127
3, 37968, Note_off_c, 0, 68, 0
3, 37968, Note_on_c, 0, 66, 127
3, 38016, Note_off_c, 0, 66, 0
3, 38016, Note_on_c, 0, 65, 127
3, 38064, Note_off_c, 0, 65, 0
3, 38064, Note_on_c, 0, 61, 127
3, 38112, Note_off_c, 0, 61, 0
3, 38112, Note_on_c, 0, 63, 127
3, 38160, Note_off_c, 0, 63, 0
3, 38208, Note_on_c, 0, 61, 127
3, 38256, Note_off_c, 0, 61, 0
3, 38256, Note_on_c, 0, 63, 127
3, 38304, Note_off_c, 0, 63, 0
3, 38304, Note_on_c, 0, 65, 127
3, 38352, Note_off_c, 0, 65, 0
3, 38352, Note_on_c, 0, 66, 127
3, 38400, Note_off_c, 0, 66, 0
3, 38400, Note_on_c, 0, 68, 127
3, 38448, Note_off_c, 0, 68, 0
3, 38448, Note_on_c, 0, 70, 127
3, 38496, Note_off_c, 0, 70, 0
3, 38496, Note_on_c, 0, 63, 127
3, 38544, Note_off_c, 0, 63, 0
3, 38592, Note_on_c, 0, 70, 127
3, 38640, Note_off_c, 0, 70, 0
3, 38640, Note_on_c, 0, 73, 127
3, 38688, Note_off_c, 0, 73, 0
3, 38688, Note_on_c, 0, 73, 127
3, 38736, Note_off_c, 0, 73, 0
3, 38736, Note_on_c, 0, 75, 127
3, 38784, Note_off_c, 0, 75, 0
3, 38784, Note_on_c, 0, 70, 127
3, 38832, Note_off_c, 0, 70, 0
3, 38832, Note_on_c, 0, 68, 127
3, 38880, Note_off_c, 0, 68, 0
3, 38880, Note_on_c, 0, 70, 127
3, 38928, Note_off_c, 0, 70, 0
3, 38976, Note_on_c, 0, 68, 127
3, 39024, Note_off_c, 0, 68, 0
3, 39024, Note_on_c, 0, 70, 127
3, 39072, Note_off_c, 0, 70, 0
3, 39072, Note_on_c, 0, 73, 127
3, 39120, Note_off_c, 0, 73, 0
3, 39120, Note_on_c, 0, 75, 127
3, 39168, Note_off_c, 0, 75, 0
3, 39168, Note_on_c, 0, 70, 127
3, 39216, Note_off_c, 0, 70, 0
3, 39216, Note_on_c, 0, 68, 127
3, 39264, Note_off_c, 0, 68, 0
3, 39264, Note_on_c, 0, 70, 127
3, 39312, Note_off_c, 0, 70, 0
3, 39360, Note_on_c, 0, 75, 127
3, 39408, Note_off_c, 0, 75, 0
3, 39408, Note_on_c, 0, 77, 127
3, 39456, Note_off_c, 0, 77, 0
3, 39456, Note_on_c, 0, 78, 127
3, 39504, Note_off_c, 0, 78, 0
3, 39504, Note_on_c, 0, 77, 127
3, 39552, Note_off_c, 0, 77, 0
3, 39552, Note_on_c, 0, 75, 127
3, 39600, Note_off_c, 0, 75, 0
3, 39600, Note_on_c, 0, 73, 127
3, 39648, Note_off_c, 0, 73, 0
3, 39648, Note_on_c, 0, 70, 127
3, 39744, Note_off_c, 0, 70, 0
3, 39744, Note_on_c, 0, 68, 127
3, 39792, Note_off_c, 0, 68, 0
3, 39792, Note_on_c, 0, 70, 127
3, 39840, Note_off_c, 0, 70, 0
3, 39840, Note_on_c, 0, 68, 127
3, 39888, Note_off_c, 0, 68, 0
3, 39888, Note_on_c, 0, 66, 127
3, 39936, Note_off_c, 0, 66, 0
3, 39936, Note_on_c, 0, 65, 127
3, 39984, Note_off_c, 0, 65, 0
3, 39984, Note_on_c, 0, 61, 127
3, 40032, Note_off_c, 0, 61, 0
3, 40032, Note_on_c, 0, 63, 127
3, 40080, Note_off_c, 0, 63, 0
3, 40128, Note_on_c, 0, 71, 127
3, 40176, Note_off_c, 0, 71, 0
3, 40176, Note_on_c, 0, 74, 127
3, 40224, Note_off_c, 0, 74, 0
3, 40224, Note_on_c, 0, 74, 127
3, 40272, Note_off_c, 0, 74, 0
3, 40272, Note_on_c, 0, 76, 127
3, 40320, Note_off_c, 0, 76, 0
3, 40320, Note_on_c, 0, 71, 127
3, 40368, Note_off_c, 0, 71, 0
3, 40368, Note_on_c, 0, 69, 127
3, 40416, Note_off_c, 0, 69, 0
3, 40416, Note_on_c, 0, 71, 127
3, 40464, Note_off_c, 0, 71, 0
3, 40512, Note_on_c, 0, 69, 127
3, 40560, Note_off_c, 0, 69, 0
3, 40560, Note_on_c, 0, 71, 127
3, 40608, Note_off_c, 0, 71, 0
3, 40608, Note_on_c, 0, 74, 127
3, 40656, Note_off_c, 0, 74, 0
3, 40656, Note_on_c, 0, 76, 127
3, 40704, Note_off_c, 0, 76, 0
3, 40704, Note_on_c, 0, 71, 127
3, 40752, Note_off_c, 0, 71, 0
3, 40752, Note_on_c, 0, 69, 127
3, 40800, Note_off_c, 0, 69, 0
3, 40800, Note_on_c, 0, 71, 127
3, 40848, Note_off_c, 0, 71, 0
3, 40896, Note_on_c, 0, 69, 127
3, 40944, Note_off_c, 0, 69, 0
3, 40944, Note_on_c, 0, 71, 127
3, 40992, Note_off_c, 0, 71, 0
3, 40992, Note_on_c, 0, 69, 127
3, 41040, Note_off_c, 0, 69, 0
3, 41040, Note_on_c, 0, 67, 127
3, 41088, Note_off_c, 0, 67, 0
3, 41088, Note_on_c, 0, 66, 127
3, 41136, Note_off_c, 0, 66, 0
3, 41136, Note_on_c, 0, 62, 127
3, 41184, Note_off_c, 0, 62, 0
3, 41184, Note_on_c, 0, 64, 127
3, 41232, Note_off_c, 0, 64, 0
3, 41280, Note_on_c, 0, 62, 127
3, 41328, Note_off_c, 0, 62, 0
3, 41328, Note_on_c, 0, 64, 127
3, 41376, Note_off_c, 0, 64, 0
3, 41376, Note_on_c, 0, 66, 127
3, 41424, Note_off_c, 0, 66, 0
3, 41424, Note_on_c, 0, 67, 127
3, 41472, Note_off_c, 0, 67, 0
3, 41472, Note_on_c, 0, 69, 127
3, 41520, Note_off_c, 0, 69, 0
3, 41520, Note_on_c, 0, 71, 127
3, 41568, Note_off_c, 0, 71, 0
3, 41568, Note_on_c, 0, 64, 127
3, 41616, Note_off_c, 0, 64, 0
3, 41664, Note_on_c, 0, 71, 127
3, 41712, Note_off_c, 0, 71, 0
3, 41712, Note_on_c, 0, 74, 127
3, 41760, Note_off_c, 0, 74, 0
3, 41760, Note_on_c, 0, 74, 127
3, 41808, Note_off_c, 0, 74, 0
3, 41808, Note_on_c, 0, 76, 127
3, 41856, Note_off_c, 0, 76, 0
3, 41856, Note_on_c, 0, 71, 127
3, 41904, Note_off_c, 0, 71, 0
3, 41904, Note_on_c, 0, 69, 127
3, 41952, Note_off_c, 0, 69, 0
3, 41952, Note_on_c, 0, 71, 127
3, 42000, Note_off_c, 0, 71, 0
3, 42048, Note_on_c, 0, 69, 127
3, 42096, Note_off_c, 0, 69, 0
3, 42096, Note_on_c, 0, 71, 127
3, 42144, Note_off_c, 0, 71, 0
3, 42144, Note_on_c, 0, 74, 127
3, 42192, Note_off_c, 0, 74, 0
3, 42192, Note_on_c, 0, 76, 127
3, 42240, Note_off_c, 0, 76, 0
3, 42240, Note_on_c, 0, 71, 127
3, 42288, Note_off_c, 0, 71, 0
3, 42288, Note_on_c, 0, 69, 127
3, 42336, Note_off_c, 0, 69, 0
3, 42336, Note_on_c, 0, 71, 127
3, 42384, Note_off_c, 0, 71, 0
3, 42432, Note_on_c, 0, 69, 127
3, 42480, Note_off_c, 0, 69, 0
3, 42480, Note_on_c, 0, 71, 127
3, 42528, Note_off_c, 0, 71, 0
3, 42528, Note_on_c, 0, 69, 127
3, 42576, Note_off_c, 0, 69, 0
3, 42576, Note_on_c, 0, 67, 127
3, 42624, Note_off_c, 0, 67, 0
3, 42624, Note_on_c, 0, 66, 127
3, 42672, Note_off_c, 0, 66, 0
3, 42672, Note_on_c, 0, 62, 127
3, 42720, Note_off_c, 0, 62, 0
3, 42720, Note_on_c, 0, 64, 127
3, 42768, Note_off_c, 0, 64, 0
3, 42816, Note_on_c, 0, 62, 127
3, 42864, Note_off_c, 0, 62, 0
3, 42864, Note_on_c, 0, 64, 127
3, 42912, Note_off_c, 0, 64, 0
3, 42912, Note_on_c, 0, 66, 127
3, 42960, Note_off_c, 0, 66, 0
3, 42960, Note_on_c, 0, 67, 127
3, 43008, Note_off_c, 0, 67, 0
3, 43008, Note_on_c, 0, 69, 127
3, 43056, Note_off_c, 0, 69, 0
3, 43056, Note_on_c, 0, 71, 127
3, 43104, Note_off_c, 0, 71, 0
3, 43104, Note_on_c, 0, 64, 127
3, 43152, Note_off_c, 0, 64, 0
3, 43200, Note_on_c, 0, 71, 127
3, 43248, Note_off_c, 0, 71, 0
3, 43248, Note_on_c, 0, 74, 127
3, 43296, Note_off_c, 0, 74, 0
3, 43296, Note_on_c, 0, 74, 127
3, 43344, Note_off_c, 0, 74, 0
3, 43344, Note_on_c, 0, 76, 127
3, 43392, Note_off_c, 0, 76, 0
3, 43392, Note_on_c, 0, 71, 127
3, 43440, Note_off_c, 0, 71, 0
3, 43440, Note_on_c, 0, 69, 127
3, 43488, Note_off_c, 0, 69, 0
3, 43488, Note_on_c, 0, 71, 127
3, 43536, Note_off_c, 0, 71, 0
3, 43584, Note_on_c, 0, 69, 127
3, 43632, Note_off_c, 0, 69, 0
3, 43632, Note_on_c, 0, 71, 127
3, 43680, Note_off_c, 0, 71, 0
3, 43680, Note_on_c, 0, 74, 127
3, 43728, Note_off_c, 0, 74, 0
3, 43728, Note_on_c, 0, 76, 127
3, 43776, Note_off_c, 0, 76, 0
3, 43776, Note_on_c, 0, 71, 127
3, 43824, Note_off_c, 0, 71, 0
3, 43824, Note_on_c, 0, 69, 127
3, 43872, Note_off_c, 0, 69, 0
3, 43872, Note_on_c, 0, 71, 127
3, 43920, Note_off_c, 0, 71, 0
3, 43968, Note_on_c, 0, 69, 127
3, 44016, Note_off_c, 0, 69, 0
3, 44016, Note_on_c, 0, 71, 127
3, 44064, Note_off_c, 0, 71, 0
3, 44064, Note_on_c, 0, 69, 127
3, 44112, Note_off_c, 0, 69, 0
3, 44112, Note_on_c, 0, 67, 127
3, 44160, Note_off_c, 0, 67, 0
3, 44160, Note_on_c, 0, 66, 127
3, 44208, Note_off_c, 0, 66, 0
3, 44208, Note_on_c, 0, 62, 127
3, 44256, Note_off_c, 0, 62, 0
3, 44256, Note_on_c, 0, 64, 127
3, 44304, Note_off_c, 0, 64, 0
3, 44352, Note_on_c, 0, 62, 127
3, 44400, Note_off_c, 0, 62, 0
3, 44400, Note_on_c, 0, 64, 127
3, 44448, Note_off_c, 0, 64, 0
3, 44448, Note_on_c, 0, 66, 127
3, 44496, Note_off_c, 0, 66, 0
3, 44496, Note_on_c, 0, 67, 127
3, 44544, Note_off_c, 0, 67, 0
3, 44544, Note_on_c, 0, 69, 127
3, 44592, Note_off_c, 0, 69, 0
3, 44592, Note_on_c, 0, 71, 127
3, 44640, Note_off_c, 0, 71, 0
3, 44640, Note_on_c, 0, 64, 127
3, 44688, Note_off_c, 0, 64, 0
3, 44736, Note_on_c, 0, 71, 127
3, 44784, Note_off_c, 0, 71, 0
3, 44784, Note_on_c, 0, 74, 127
3, 44832, Note_off_c, 0, 74, 0
3, 44832, Note_on_c, 0, 74, 127
3, 44880, Note_off_c, 0, 74, 0
3, 44880, Note_on_c, 0, 76, 127
3, 44928, Note_off_c, 0, 76, 0
3, 44928, Note_on_c, 0, 71, 127
3, 44976, Note_off_c, 0, 71, 0
3, 44976, Note_on_c, 0, 69, 127
3, 45024, Note_off_c, 0, 69, 0
3, 45024, Note_on_c, 0, 71, 127
3, 45072, Note_off_c, 0, 71, 0
3, 45120, Note_on_c, 0, 69, 127
3, 45168, Note_off_c, 0, 69, 0
3, 45168, Note_on_c, 0, 71, 127
3, 45216, Note_off_c, 0, 71, 0
3, 45216, Note_on_c, 0, 74, 127
3, 45264, Note_off_c, 0, 74, 0
3, 45264, Note_on_c, 0, 76, 127
3, 45312, Note_off_c, 0, 76, 0
3, 45312, Note_on_c, 0, 71, 127
3, 45360, Note_off_c, 0, 71, 0
3, 45360, Note_on_c, 0, 69, 127
3, 45408, Note_off_c, 0, 69, 0
3, 45408, Note_on_c, 0, 71, 127
3, 45456, Note_off_c, 0, 71, 0
3, 45504, Note_on_c, 0, 76, 127
3, 45552, Note_off_c, 0, 76, 0
3, 45552, Note_on_c, 0, 78, 127
3, 45600, Note_off_c, 0, 78, 0
3, 45600, Note_on_c, 0, 79, 127
3, 45648, Note_off_c, 0, 79, 0
3, 45648, Note_on_c, 0, 78, 127
3, 45696, Note_off_c, 0, 78, 0
3, 45696, Note_on_c, 0, 76, 127
3, 45744, Note_off_c, 0, 76, 0
3, 45744, Note_on_c, 0, 74, 127
3, 45792, Note_off_c, 0, 74, 0
3, 45792, Note_on_c, 0, 71, 127
3, 45888, Note_off_c, 0, 71, 0
3, 45888, Note_on_c, 0, 69, 127
3, 45936, Note_off_c, 0, 69, 0
3, 45936, Note_on_c, 0, 71, 127
3, 45960, Note_off_c, 0, 71, 0
3, 45984, Note_on_c, 0, 69, 127
3, 46032, Note_off_c, 0, 69, 0
3, 46032, Note_on_c, 0, 67, 127
3, 46080, Note_off_c, 0, 67, 0
3, 46080, Note_on_c, 0, 66, 127
3, 46128, Note_off_c, 0, 66, 0
3, 46128, Note_on_c, 0, 62, 127
3, 46176, Note_off_c, 0, 62, 0
3, 46176, Note_on_c, 0, 64, 127
3, 46272, Note_off_c, 0, 64, 0
3, 46380, Note_on_c, 0, 64, 127
3, 46425, Note_off_c, 0, 64, 0
3, 46428, Note_on_c, 0, 64, 127
3, 46456, Control_c, 0, 7, 100
3, 46458, Control_c, 0, 7, 115
3, 46466, Control_c, 0, 7, 54
3, 46500, Note_off_c, 0, 64, 0
3, 46500, Note_on_c, 0, 64, 127
3, 46569, Note_off_c, 0, 64, 0
3, 46572, Note_on_c, 0, 64, 127
3, 46617, Note_off_c, 0, 64, 0
3, 46620, Note_on_c, 0, 64, 127
3, 46692, Note_off_c, 0, 64, 0
3, 46692, Note_on_c, 0, 64, 127
3, 46761, Note_off_c, 0, 64, 0
3, 46764, Note_on_c, 0, 64, 127
3, 46809, Note_off_c, 0, 64, 0
3, 46812, Note_on_c, 0, 64, 127
3, 46884, Note_off_c, 0, 64, 0
3, 46884, Note_on_c, 0, 64, 127
3, 46953, Note_off_c, 0, 64, 0
3, 46956, Note_on_c, 0, 64, 127
3, 47001, Note_off_c, 0, 64, 0
3, 47004, Note_on_c, 0, 64, 127
3, 47076, Note_off_c, 0, 64, 0
3, 47076, Note_on_c, 0, 64, 127
3, 47145, Note_off_c, 0, 64, 0
3, 47148, Note_on_c, 0, 64, 127
3, 47193, Note_off_c, 0, 64, 0
3, 47196, Note_on_c, 0, 64, 127
3, 47268, Note_off_c, 0, 64, 0
3, 47268, Note_on_c, 0, 64, 127
3, 47337, Note_off_c, 0, 64, 0
3, 47340, Note_on_c, 0, 64, 127
3, 47385, Note_off_c, 0, 64, 0
3, 47388, Note_on_c, 0, 64, 127
3, 47460, Note_off_c, 0, 64, 0
3, 47460, Note_on_c, 0, 64, 127
3, 47529, Note_off_c, 0, 64, 0
3, 47532, Note_on_c, 0, 64, 127
3, 47577, Note_off_c, 0, 64, 0
3, 47580, Note_on_c, 0, 64, 127
3, 47652, Note_off_c, 0, 64, 0
3, 47652, Note_on_c, 0, 64, 127
3, 47721, Note_off_c, 0, 64, 0
3, 47724, Note_on_c, 0, 64, 127
3, 47769, Note_off_c, 0, 64, 0
3, 47772, Note_on_c, 0, 64, 127
3, 47844, Note_off_c, 0, 64, 0
3, 47844, Note_on_c, 0, 64, 127
3, 47913, Note_off_c, 0, 64, 0
3, 48473, Control_c, 0, 101, 0
3, 48473, Control_c, 0, 100, 0
3, 48473, Control_c, 0, 6, 12
3, 48473, Control_c, 0, 10, 64
3, 48473, Control_c, 0, 7, 54
3, 48473, Pitch_bend_c, 0, 8192
3, 48474, Control_c, 0, 101, 0
3, 48474, Control_c, 0, 100, 0
3, 48474, Control_c, 0, 6, 12
3, 48474, Control_c, 0, 10, 64
3, 48474, Control_c, 0, 7, 54
3, 48474, Pitch_bend_c, 0, 8192
3, 48474, Control_c, 0, 101, 0
3, 48474, Control_c, 0, 100, 0
3, 48474, Control_c, 0, 6, 12
3, 48474, Control_c, 0, 10, 64
3, 48474, Control_c, 0, 7, 54
3, 48474, Pitch_bend_c, 0, 8192
3, 48474, End_track
0, 0, End_of_file
